<svg preserveAspectRatio="none" overflow="visible" style="display: block;" width="24" height="24" viewBox="0 0 24 24" fill="none" xmlns="http://www.w3.org/2000/svg">
<g id="Signal/Icon/Person">
<g id="Pixel glyph">
<path fill-rule="evenodd" clip-rule="evenodd" d="M8 4H14V6H16V12H14V14H8V12H6V6H8V4ZM8 6V12H14V6H8ZM6 16H8V14H14V16H16V20H4V16H6ZM6 18V20H14V18H6Z" fill="#352A48"/>
<path d="M14 6V4H8V6M14 6H16V12H14M14 6V12M14 6H8M14 12V14M14 12H8M14 14H8M14 14V16H16V20H4V16H6H8V14M8 14V12M8 12H6V6H8M8 12V6M6 18V20H14V18H6Z" stroke="black"/>
</g>
</g>
</svg>
